<svg width="374" height="13" viewBox="0 0 374 13" fill="none" xmlns="http://www.w3.org/2000/svg">
<path d="M330.848 8.4009C324.264 8.21418 317.68 8.07565 311.104 7.83473C305.5 7.62392 299.868 7.89495 294.281 7.50948C291.959 7.34686 289.629 7.18423 287.289 7.1481C279.752 7.03968 272.207 7.00957 264.67 6.91321C260.426 6.859 256.172 6.6241 251.973 6.7024C249.252 6.7566 246.84 6.13623 244.219 6.02179C242.06 5.93145 239.984 6.25669 237.87 6.19044C230.615 5.96758 223.45 5.9977 216.24 6.02179C210.518 6.02179 204.75 5.82906 199.063 5.94952C192.234 6.09407 185.523 5.20266 178.721 5.61223C178.192 5.62915 177.662 5.58845 177.152 5.49176C174.975 5.1677 172.737 5.06213 170.513 5.17857C168.173 5.23278 165.834 5.11835 163.503 5.11233C159.576 5.11233 155.676 4.57626 151.713 5.0039C151.191 5.03767 150.665 5.01737 150.153 4.94368C145.128 4.44873 140.05 4.22913 134.971 4.28716C125.612 4.28716 116.325 3.68486 106.992 3.54633C99.2382 3.42587 91.5022 3.07051 83.7571 2.8838C77.8077 2.73924 71.7494 2.28149 65.936 2.95607C60.3131 3.59451 54.8262 3.05847 49.294 3.11267C47.1355 3.11267 45.1403 3.11267 43.1723 3.59451C41.6404 3.95952 39.9542 3.91196 38.4744 3.462C35.7537 2.43809 33.0329 2.78743 30.2305 2.92596C27.4281 3.06449 24.7889 3.98601 22.0682 2.87777C21.7689 2.75731 21.0524 2.93197 20.5264 2.96811C19.594 3.11675 18.6199 3.10431 17.6968 2.93197C16.2047 2.56428 14.5636 2.56428 13.0715 2.93197C12.2553 3.08255 11.6476 3.32951 11.5297 2.47423C11.4481 1.91409 9.65241 1.87194 8.41899 2.23332C5.34452 3.0645 3.35838 4.47989 1.4085 5.92542C0.664819 6.47352 -0.496031 7.00957 0.229507 7.73233C0.955045 8.45509 2.36075 8.41897 3.60323 8.5575C4.10889 8.58928 4.619 8.55226 5.10239 8.4487C5.58578 8.34515 6.03229 8.17722 6.41467 7.9552C8.49749 6.96575 10.8862 6.29704 13.4071 5.99771C15.9646 5.75077 18.6128 5.82303 21.2157 5.49779C22.7749 5.36154 24.3197 5.16037 25.841 4.89549C26.7186 4.63833 27.7049 4.59565 28.6253 4.77502C29.9584 5.14845 31.219 5.56405 32.7698 5.16653C35.3183 6.11817 38.0209 5.53393 40.4787 5.19664C42.8183 4.85529 45.2619 5.03302 47.4348 5.70257C50.4821 6.55182 53.5747 7.50949 57.284 7.04571C57.6367 6.96883 58.0106 6.94463 58.379 6.97482C58.7474 7.00501 59.1013 7.08887 59.4152 7.22039C61.2291 8.3226 63.6143 8.15997 65.9179 8.17202C67.6139 8.17202 69.3279 7.98531 70.9785 8.34669C73.6263 8.85935 76.404 9.00692 79.1408 8.78035C81.3639 8.69299 83.5928 8.69299 85.8158 8.78035C87.8382 8.78035 89.8697 8.92489 91.874 8.86466C100.1 8.62374 108.199 9.46697 116.361 9.73198C124.523 9.99699 132.686 10.4005 140.848 10.7198C147.414 10.9727 153.989 11.1956 160.555 11.4245C168.455 11.7015 176.336 12.358 184.289 11.8822C184.698 11.8679 185.106 11.9195 185.478 12.0328C186.484 12.3355 187.584 12.4754 188.688 12.4408C189.791 12.4063 190.867 12.1983 191.826 11.834C192.443 11.5931 193.05 11.575 192.796 12.1954C192.66 12.5206 193.195 12.5508 193.613 12.5628C195 12.5929 196.333 12.611 197.757 12.623C198.1 12.6407 198.442 12.5934 198.746 12.4868C199.049 12.3802 199.301 12.2186 199.471 12.0207C200.632 10.8643 200.977 10.8643 203.416 11.3823C204.106 11.5268 204.858 11.569 205.566 11.6895C206.718 11.8822 208.767 11.1414 208.749 12.5929C208.749 12.6712 209.466 12.8098 209.865 12.8218C212.283 12.8941 214.726 12.9523 217.193 12.9965C218.834 13.0266 220.358 12.882 220.993 11.8521C222.426 12.6411 222.707 12.7736 223.351 12.7977C223.732 12.7977 224.158 12.7977 224.394 12.5508C224.983 11.8882 225.01 11.8943 225.709 12.34C226.797 13.0447 227.776 13.1229 229.998 12.6833C229.826 12.081 228.366 12.605 228.067 11.9906C229.218 11.6869 230.461 11.5693 231.694 11.6473C232.967 11.7045 234.246 11.6458 235.494 11.4726C237.308 11.1414 239.122 10.7258 240.754 11.7256C241.03 11.8313 241.343 11.887 241.661 11.887C241.98 11.887 242.293 11.8313 242.568 11.7256C243.49 11.5632 244.448 11.5082 245.398 11.563C246.187 11.563 246.586 11.7316 246.513 12.1653C246.513 12.4183 246.06 12.7977 246.967 12.8158C247.087 12.8241 247.209 12.814 247.322 12.7862C247.435 12.7584 247.538 12.7137 247.621 12.6555C247.704 12.5973 247.766 12.5272 247.802 12.4505C247.838 12.3739 247.847 12.2928 247.828 12.2135C247.828 11.6112 248.209 10.9788 249.388 11.4546C251.202 12.2075 252.789 11.7075 254.476 11.5088C255.492 11.3883 256.508 11.0028 257.514 11.3642C259.963 12.2436 262.43 11.9304 264.824 11.4004C266.689 10.9156 268.731 10.8149 270.683 11.1113C271.197 11.1929 271.724 11.2293 272.252 11.2197C278.065 11.2197 283.87 11.1896 289.683 11.3341C294.744 11.4606 299.822 11.3341 304.901 11.3763C306.642 11.3763 308.311 11.2739 309.599 10.5511C310.189 10.2199 310.442 10.3162 311.086 10.5993C312.483 11.2016 314.424 11.4546 315.739 10.786C317.652 9.8163 319.757 9.90062 321.969 9.93676C325.497 9.99699 328.708 9.36457 332 8.9008C331.943 8.73443 331.792 8.58923 331.577 8.49592C331.362 8.40262 331.1 8.36854 330.848 8.4009ZM173.851 8.46113C177.161 7.93713 178.984 7.96723 184.108 8.65385C180.626 9.22604 177.315 8.02145 173.851 8.46113Z" fill="#377DFF"/>
<path d="M351.904 0.402922C353.679 0.0242532 355.54 -0.0891318 357.377 0.0696404C361.283 0.265685 365.18 0.154593 369.077 0.0696404C369.969 0.0144905 370.868 0.0946368 371.715 0.305004C372.563 0.515371 373.341 0.851361 374 1.29165C372.929 2.26533 371.228 2.49406 369.5 2.6509C364.928 3.06259 360.347 3.47428 355.765 3.86637C354.22 4.0991 352.616 4.02688 351.121 3.65725C349.937 3.34089 348.668 3.22686 347.413 3.32399C344.146 3.42854 340.951 2.90575 337.693 2.89268C337.387 2.89268 337.09 2.7816 337 2.34376C343.057 1.75563 349.213 1.69028 355.729 1.4681C354.649 0.572831 353.029 1.19363 351.904 0.402922Z" fill="#377DFF"/>
<path d="M345 5.26121C341.622 6.10105 338.271 6.01767 334.957 5.97597C328.137 5.88663 321.326 5.68411 314.516 5.52925C314.004 5.52925 313.438 5.56498 313 5.14804C314.132 4.59411 315.575 4.71325 316.825 4.79068C321.956 5.11232 327.069 4.76089 332.182 4.70728C333.439 4.76254 334.697 4.60455 335.834 4.24866C337.477 3.60538 339.175 4.4452 340.8 4.17717C342.763 3.85553 343.749 4.55837 345 5.26121Z" fill="#377DFF"/>
<path d="M303 4.34817C305.691 3.58713 308.211 4.30443 311 4.34817C308.408 5.21728 305.592 5.21728 303 4.34817Z" fill="#377DFF"/>
</svg>
