<svg width="268" height="13" viewBox="0 0 268 13" fill="none" xmlns="http://www.w3.org/2000/svg">
<path d="M237.078 8.4009C232.36 8.21418 227.642 8.07565 222.93 7.83473C218.914 7.62392 214.878 7.89495 210.875 7.50948C209.212 7.34686 207.541 7.18423 205.865 7.1481C200.464 7.03968 195.057 7.00957 189.657 6.91321C186.615 6.859 183.567 6.6241 180.558 6.7024C178.609 6.7566 176.88 6.13623 175.002 6.02179C173.455 5.93145 171.967 6.25669 170.453 6.19044C165.254 5.96758 160.12 5.9977 154.953 6.02179C150.852 6.02179 146.719 5.82906 142.644 5.94952C137.751 6.09407 132.942 5.20266 128.067 5.61223C127.688 5.62915 127.308 5.58845 126.943 5.49176C125.383 5.1677 123.78 5.06213 122.186 5.17857C120.509 5.23278 118.833 5.11835 117.162 5.11233C114.348 5.11233 111.554 4.57626 108.714 5.0039C108.34 5.03767 107.963 5.01737 107.596 4.94368C103.995 4.44873 100.357 4.22913 96.7172 4.28716C90.0104 4.28716 83.3556 3.68486 76.6684 3.54633C71.1119 3.42587 65.5684 3.07051 60.0184 2.8838C55.7552 2.73924 51.414 2.28149 47.2483 2.95607C43.219 3.59451 39.2873 3.05847 35.323 3.11267C33.7763 3.11267 32.3465 3.11267 30.9363 3.59451C29.8386 3.95952 28.6303 3.91196 27.5699 3.462C25.6203 2.43809 23.6706 2.78743 21.6625 2.92596C19.6543 3.06449 17.7632 3.98601 15.8136 2.87777C15.5991 2.75731 15.0857 2.93197 14.7087 2.96811C14.0406 3.11675 13.3426 3.10431 12.6811 2.93197C11.6119 2.56428 10.4359 2.56428 9.36675 2.93197C8.78186 3.08255 8.34643 3.32951 8.26195 2.47423C8.20346 1.91409 6.9167 1.87194 6.03286 2.23332C3.82977 3.0645 2.40654 4.47989 1.0093 5.92542C0.476394 6.47352 -0.355445 7.00957 0.164459 7.73233C0.684364 8.45509 1.69166 8.41897 2.582 8.5575C2.94434 8.58928 3.30987 8.55226 3.65626 8.4487C4.00265 8.34515 4.32261 8.17722 4.59661 7.9552C6.08911 6.96575 7.80082 6.29704 9.6072 5.99771C11.4399 5.75077 13.3375 5.82303 15.2027 5.49779C16.32 5.36154 17.427 5.16037 18.5171 4.89549C19.1459 4.63833 19.8527 4.59565 20.5122 4.77502C21.4675 5.14845 22.3708 5.56405 23.4821 5.16653C25.3083 6.11817 27.2449 5.53393 29.0061 5.19664C30.6826 4.85529 32.4337 5.03302 33.9907 5.70257C36.1743 6.55182 38.3904 7.50949 41.0484 7.04571C41.3012 6.96883 41.5691 6.94463 41.8331 6.97482C42.0971 7.00501 42.3506 7.08887 42.5756 7.22039C43.8754 8.3226 45.5846 8.15997 47.2353 8.17202C48.4506 8.17202 49.6788 7.98531 50.8616 8.34669C52.7589 8.85935 54.7494 9.00692 56.7105 8.78035C58.3035 8.69299 59.9007 8.69299 61.4937 8.78035C62.9429 8.78035 64.3986 8.92489 65.8349 8.86466C71.7293 8.62374 77.5327 9.46697 83.3817 9.73198C89.2306 9.99699 95.0795 10.4005 100.928 10.7198C105.634 10.9727 110.345 11.1956 115.05 11.4245C120.711 11.7015 126.358 12.358 132.058 11.8822C132.35 11.8679 132.643 11.9195 132.909 12.0328C133.63 12.3355 134.419 12.4754 135.209 12.4408C136 12.4063 136.771 12.1983 137.458 11.834C137.9 11.5931 138.336 11.575 138.154 12.1954C138.056 12.5206 138.44 12.5508 138.738 12.5628C139.733 12.5929 140.688 12.611 141.708 12.623C141.954 12.6407 142.199 12.5934 142.417 12.4868C142.634 12.3802 142.814 12.2186 142.937 12.0207C143.769 10.8643 144.016 10.8643 145.764 11.3823C146.258 11.5268 146.797 11.569 147.304 11.6895C148.129 11.8822 149.598 11.1414 149.585 12.5929C149.585 12.6712 150.098 12.8098 150.384 12.8218C152.117 12.8941 153.868 12.9523 155.635 12.9965C156.812 13.0266 157.903 12.882 158.358 11.8521C159.385 12.6411 159.587 12.7736 160.048 12.7977C160.321 12.7977 160.626 12.7977 160.795 12.5508C161.218 11.8882 161.237 11.8943 161.738 12.34C162.518 13.0447 163.219 13.1229 164.812 12.6833C164.688 12.081 163.642 12.605 163.427 11.9906C164.252 11.6869 165.143 11.5693 166.027 11.6473C166.939 11.7045 167.855 11.6458 168.75 11.4726C170.05 11.1414 171.349 10.7258 172.519 11.7256C172.717 11.8313 172.941 11.887 173.169 11.887C173.397 11.887 173.621 11.8313 173.819 11.7256C174.48 11.5632 175.166 11.5082 175.847 11.563C176.412 11.563 176.698 11.7316 176.646 12.1653C176.646 12.4183 176.321 12.7977 176.971 12.8158C177.057 12.8241 177.144 12.814 177.225 12.7862C177.307 12.7584 177.38 12.7137 177.44 12.6555C177.499 12.5973 177.544 12.5272 177.57 12.4505C177.595 12.3739 177.602 12.2928 177.588 12.2135C177.588 11.6112 177.861 10.9788 178.706 11.4546C180.006 12.2075 181.143 11.7075 182.352 11.5088C183.08 11.3883 183.808 11.0028 184.529 11.3642C186.284 12.2436 188.051 11.9304 189.767 11.4004C191.103 10.9156 192.566 10.8149 193.965 11.1113C194.333 11.1929 194.711 11.2293 195.09 11.2197C199.255 11.2197 203.415 11.1896 207.58 11.3341C211.207 11.4606 214.846 11.3341 218.485 11.3763C219.733 11.3763 220.929 11.2739 221.852 10.5511C222.274 10.2199 222.456 10.3162 222.917 10.5993C223.918 11.2016 225.309 11.4546 226.251 10.786C227.623 9.8163 229.13 9.90062 230.716 9.93676C233.244 9.99699 235.545 9.36457 237.904 8.9008C237.863 8.73443 237.754 8.58923 237.6 8.49592C237.446 8.40262 237.259 8.36854 237.078 8.4009ZM124.578 8.46113C126.95 7.93713 128.256 7.96723 131.928 8.65385C129.432 9.22604 127.06 8.02145 124.578 8.46113Z" fill="white"/>
<path d="M252.167 0.402922C253.438 0.0242532 254.772 -0.0891318 256.088 0.0696404C258.887 0.265685 261.68 0.154593 264.472 0.0696404C265.112 0.0144905 265.755 0.0946368 266.363 0.305004C266.97 0.515371 267.528 0.851361 268 1.29165C267.232 2.26533 266.014 2.49406 264.775 2.6509C261.499 3.06259 258.216 3.47428 254.934 3.86637C253.826 4.0991 252.677 4.02688 251.606 3.65725C250.757 3.34089 249.848 3.22686 248.948 3.32399C246.607 3.42854 244.318 2.90575 241.983 2.89268C241.764 2.89268 241.551 2.7816 241.487 2.34376C245.827 1.75563 250.238 1.69028 254.908 1.4681C254.134 0.572831 252.973 1.19363 252.167 0.402922Z" fill="white"/>
<path d="M247.219 5.26121C244.799 6.10105 242.398 6.01767 240.023 5.97597C235.136 5.88663 230.255 5.68411 225.375 5.52925C225.008 5.52925 224.603 5.56498 224.289 5.14804C225.1 4.59411 226.134 4.71325 227.03 4.79068C230.707 5.11232 234.37 4.76089 238.034 4.70728C238.935 4.76254 239.837 4.60455 240.651 4.24866C241.829 3.60538 243.045 4.4452 244.21 4.17717C245.616 3.85553 246.323 4.55837 247.219 5.26121Z" fill="white"/>
<path d="M217.123 4.34817C219.051 3.58713 220.857 4.30443 222.856 4.34817C220.998 5.21728 218.981 5.21728 217.123 4.34817Z" fill="white"/>
</svg>
