<svg width="548" height="20" viewBox="0 0 548 20" fill="none" xmlns="http://www.w3.org/2000/svg">
<path d="M138.312 10.1181C139.933 10.1181 141.488 10.0277 142.896 10.2903C145.381 10.6857 148.102 10.9016 150.869 10.9232C161.632 11.2332 172.395 11.5361 183.158 11.8317C183.889 11.8317 184.726 11.8317 184.74 12.0599C184.74 12.6196 186.6 12.6067 188.141 12.6239C190.613 12.6497 186.241 13.1104 188.992 13.2095C191.068 13.3142 193.163 13.3732 195.263 13.386C199.768 13.386 204.233 13.4592 207.754 14.2471C209.129 14.49 210.705 14.5864 212.259 14.5226C225.121 14.4624 237.877 14.8542 250.713 14.9532C263.549 15.0522 276.678 15.3622 289.66 15.5861C302.947 15.8186 316.235 15.7971 329.443 16.5333C347.514 17.5408 366.157 17.7302 384.707 17.8895C385.703 17.8895 386.873 18.0273 387.723 17.5408C382.581 17.0198 376.867 17.2351 370.901 16.8777C372.376 16.8218 373.054 16.8002 373.731 16.7701C384.68 16.2922 395.39 17.0284 406.206 17.1576C412.252 17.2308 418.285 17.3298 424.358 17.3083C433.274 17.2738 442.216 17.1791 451.053 17.5709C451.628 17.5613 452.202 17.59 452.742 17.6551C453.281 17.7203 453.773 17.8206 454.189 17.9498L443.319 18.3373C446.789 18.5097 450.32 18.5097 453.79 18.3373C456.561 18.1243 459.423 18.0661 462.254 18.1651C471.622 18.686 481.149 19.0262 490.477 19.6074C501.294 20.2705 511.738 20.3135 519.524 17.967C519.795 17.9051 520.096 17.8585 520.415 17.8293C524.574 17.3643 526.368 16.473 528.215 15.5689C531.816 13.8251 533.237 11.8748 538.047 10.2387C540.439 9.42493 542.246 8.5423 545.688 7.88356C548.837 7.28079 548.625 6.23025 545.927 5.30027C544.598 4.86972 540.492 4.58986 537.715 4.86972C534.938 5.14957 532.121 5.34762 530.234 5.7954C526.926 6.58761 523.072 6.60914 518.926 6.60053C511.964 6.60053 505.081 6.27331 498.091 6.3422C483.089 6.48859 468.141 6.12261 453.152 6.02359C447.638 5.98914 442.097 5.88152 436.622 5.7136C427.44 5.42944 418.205 5.19694 409.01 4.96014C401.782 4.77931 394.394 4.62861 387.298 4.40042C374.901 3.9957 362.45 3.77612 350.026 3.53932C335.529 3.27669 321.085 2.70837 306.376 3.06142C299.041 3.23794 291.653 2.71267 284.119 2.73851C276.359 2.76003 268.612 2.33378 260.785 2.23476C249.039 2.08406 237.319 1.67074 225.599 2.23476C224.379 2.26001 223.157 2.20132 222.012 2.06254C217.886 1.74642 213.593 1.73759 209.455 2.03671C205.12 2.3009 200.707 2.40346 196.3 2.34239C186.321 2.30364 176.368 2.08837 166.389 2.10989C149.952 2.14434 133.701 1.67935 117.397 1.32199C115.653 1.32507 113.923 1.21681 112.308 1.00339C107.798 0.298645 102.83 -0.0439655 97.8244 0.00451407C82.9953 0.107846 68.299 0.499644 53.5895 0.917277C39.252 1.3263 24.8747 1.67504 10.5106 2.04531C6.95438 2.0717 3.42277 2.24386 0 2.55767C2.71396 2.79299 5.52669 2.88603 8.33141 2.83323C11.1771 2.81122 14.0232 2.87173 16.8356 3.01405C23.7054 3.4446 31.1332 3.10877 37.8169 3.81057C38.1687 3.83026 38.5282 3.83026 38.88 3.81057C51.211 3.6771 63.4756 4.17654 75.8066 4.01724C78.9527 4.0248 82.0813 4.16962 85.108 4.44779C93.2667 5.04625 101.505 5.59734 110.209 5.54137C113.229 5.50442 116.252 5.58099 119.218 5.76956C121.309 5.90584 123.436 5.97507 125.569 5.97623C138.023 6.03079 150.476 5.85397 162.868 5.44665C175.3 5.14773 187.772 5.0572 200.233 5.17542C216.085 5.24 231.924 5.42082 247.79 5.43805C255.098 5.43805 262.499 5.33041 269.688 5.54999C275.854 5.73943 281.979 5.94178 288.171 5.94609C296.583 5.94609 304.927 6.15276 313.285 6.27762C319.891 6.32338 326.474 6.54805 332.964 6.94928C326.321 8.02565 319.119 7.44871 311.77 7.51759C312.45 7.78978 313.297 8.01307 314.258 8.17319C315.219 8.33332 316.273 8.42676 317.351 8.44758C321.936 8.61119 326.573 8.92119 331.117 8.87813C342.452 8.73605 353.467 9.43785 364.722 9.4034C366.927 9.38483 369.115 9.5322 371.114 9.83395H364.603C353.521 9.86409 342.598 9.36896 331.543 9.24841C324.965 9.17091 318.361 9.13216 311.77 9.02022C299.519 8.80925 287.241 8.67146 274.977 8.48633C265.529 8.34425 256.028 8.48634 246.621 8.31842C231.659 8.05148 216.657 8.15481 201.695 7.95245C187.078 7.7544 172.462 7.84912 157.845 7.80176C156.637 7.78161 155.434 7.73559 154.244 7.66399C176.129 7.44011 197.921 7.51329 220.231 7.30663C219.929 7.17332 219.525 7.0676 219.06 6.99971C218.594 6.93182 218.082 6.90406 217.574 6.91914C210.398 7.06552 203.369 6.66942 196.22 6.68234C183.012 6.70817 169.804 6.68234 156.596 6.68234C146.949 6.68234 137.316 6.70817 127.669 6.734C125.503 6.734 123.682 6.90191 123.855 7.51759C123.961 8.05578 125.596 8.18495 127.536 8.21078C138.166 8.36148 148.796 8.71883 159.559 8.68439C163.851 8.68439 168.13 8.61981 172.409 8.64133C192.765 8.73175 213.109 8.71883 233.452 8.89105C244.694 8.98577 255.935 9.03313 267.15 9.21396C271.311 9.20958 275.463 9.33648 279.548 9.59284C279.323 9.69231 279.018 9.76984 278.667 9.81692C278.315 9.86401 277.93 9.87883 277.554 9.85978C265.596 9.85978 253.637 9.88993 241.678 9.7866C226.53 9.65743 211.395 9.40772 196.22 9.41202C191.955 9.41202 187.676 9.54549 183.411 9.55841C171.106 9.59716 158.815 9.60146 146.524 9.6273C141.209 9.6273 135.814 9.75215 130.579 9.41632C129.82 9.34364 129.02 9.32681 128.239 9.36703C127.457 9.40726 126.713 9.50352 126.061 9.64882C130.127 10.2516 134.299 10.1224 138.312 10.1181ZM140.066 7.77163C135.869 7.76221 131.677 7.67739 127.509 7.51759C134.791 7.53912 142.126 7.40996 149.368 7.63815C146.258 7.69842 143.162 7.78024 140.066 7.77163Z" fill="#377DFF"/>
</svg>
