<svg width="30" height="30" viewBox="0 0 30 30" fill="none" xmlns="http://www.w3.org/2000/svg">
<g id="logos:telegram" clip-path="url(#clip0_0_1113)">
<path id="Vector" d="M15 0C11.0227 0 7.20469 1.58133 4.39453 4.39336C1.58148 7.20651 0.000779226 11.0217 0 15C0 18.9766 1.58203 22.7946 4.39453 25.6066C7.20469 28.4187 11.0227 30 15 30C18.9773 30 22.7953 28.4187 25.6055 25.6066C28.418 22.7946 30 18.9766 30 15C30 11.0234 28.418 7.20539 25.6055 4.39336C22.7953 1.58133 18.9773 0 15 0Z" fill="url(#paint0_linear_0_1113)"/>
<path id="Vector_2" d="M6.79029 14.8416C11.1637 12.9366 14.0794 11.6805 15.5372 11.0737C19.7044 9.34101 20.5692 9.04007 21.134 9.02987C21.2583 9.02788 21.5348 9.05858 21.7153 9.20448C21.8653 9.32753 21.9075 9.49394 21.9286 9.61077C21.9473 9.72749 21.9731 9.99351 21.952 10.2012C21.727 12.573 20.7497 18.3288 20.2528 20.9855C20.0442 22.1095 19.6294 22.4864 19.2286 22.5232C18.3567 22.6033 17.6958 21.9476 16.852 21.3947C15.5325 20.5291 14.7872 19.9905 13.5051 19.1461C12.0239 18.1701 12.9848 17.6337 13.8286 16.7571C14.0489 16.5276 17.8879 13.0366 17.9606 12.72C17.97 12.6804 17.9794 12.5327 17.8903 12.4549C17.8036 12.3769 17.6747 12.4036 17.5809 12.4247C17.4473 12.4547 15.3403 13.8487 11.2528 16.6066C10.6551 17.0177 10.1137 17.2181 9.62623 17.2076C9.09186 17.1961 8.06061 16.9048 7.2942 16.6559C6.3567 16.3505 5.60904 16.189 5.67467 15.6703C5.70748 15.4003 6.08014 15.124 6.79029 14.8416Z" fill="white"/>
</g>
<defs>
<linearGradient id="paint0_linear_0_1113" x1="1500" y1="0" x2="1500" y2="3000" gradientUnits="userSpaceOnUse">
<stop stop-color="#2AABEE"/>
<stop offset="1" stop-color="#229ED9"/>
</linearGradient>
<clipPath id="clip0_0_1113">
<rect width="30" height="30" fill="white"/>
</clipPath>
</defs>
</svg>
